<svg width="97" height="51" viewBox="0 0 97 51" fill="none" xmlns="http://www.w3.org/2000/svg">
<path d="M30.188 25.188L12.188 35.5803L12.188 14.7957L30.188 25.188Z" fill="black"/>
<path d="M41.5025 30.284H46.4305V33.188H37.7405V17.744H41.5025V30.284ZM53.8128 33.364C52.6102 33.364 51.5248 33.1073 50.5568 32.594C49.6035 32.0807 48.8482 31.3473 48.2908 30.394C47.7482 29.4407 47.4768 28.326 47.4768 27.05C47.4768 25.7887 47.7555 24.6813 48.3128 23.728C48.8702 22.76 49.6328 22.0193 50.6008 21.506C51.5688 20.9927 52.6542 20.736 53.8568 20.736C55.0595 20.736 56.1448 20.9927 57.1128 21.506C58.0808 22.0193 58.8435 22.76 59.4008 23.728C59.9582 24.6813 60.2368 25.7887 60.2368 27.05C60.2368 28.3113 59.9508 29.426 59.3788 30.394C58.8215 31.3473 58.0515 32.0807 57.0688 32.594C56.1008 33.1073 55.0155 33.364 53.8128 33.364ZM53.8128 30.108C54.5315 30.108 55.1402 29.844 55.6388 29.316C56.1522 28.788 56.4088 28.0327 56.4088 27.05C56.4088 26.0673 56.1595 25.312 55.6608 24.784C55.1768 24.256 54.5755 23.992 53.8568 23.992C53.1235 23.992 52.5148 24.256 52.0308 24.784C51.5468 25.2973 51.3048 26.0527 51.3048 27.05C51.3048 28.0327 51.5395 28.788 52.0088 29.316C52.4928 29.844 53.0942 30.108 53.8128 30.108ZM66.8967 20.736C67.762 20.736 68.5173 20.912 69.1627 21.264C69.8227 21.616 70.3287 22.078 70.6807 22.65V20.912H74.4427V33.166C74.4427 34.2953 74.2153 35.3147 73.7607 36.224C73.3207 37.148 72.6387 37.8813 71.7147 38.424C70.8053 38.9667 69.6687 39.238 68.3047 39.238C66.486 39.238 65.012 38.8053 63.8827 37.94C62.7533 37.0893 62.108 35.9307 61.9467 34.464H65.6647C65.782 34.9333 66.0607 35.3 66.5007 35.564C66.9407 35.8427 67.4833 35.982 68.1287 35.982C68.906 35.982 69.522 35.7547 69.9767 35.3C70.446 34.86 70.6807 34.1487 70.6807 33.166V31.428C70.314 32 69.808 32.4693 69.1627 32.836C68.5173 33.188 67.762 33.364 66.8967 33.364C65.8847 33.364 64.968 33.1073 64.1467 32.594C63.3253 32.066 62.6727 31.3253 62.1887 30.372C61.7193 29.404 61.4847 28.2893 61.4847 27.028C61.4847 25.7667 61.7193 24.6593 62.1887 23.706C62.6727 22.7527 63.3253 22.0193 64.1467 21.506C64.968 20.9927 65.8847 20.736 66.8967 20.736ZM70.6807 27.05C70.6807 26.1113 70.4167 25.3707 69.8887 24.828C69.3753 24.2853 68.7447 24.014 67.9967 24.014C67.2487 24.014 66.6107 24.2853 66.0827 24.828C65.5693 25.356 65.3127 26.0893 65.3127 27.028C65.3127 27.9667 65.5693 28.7147 66.0827 29.272C66.6107 29.8147 67.2487 30.086 67.9967 30.086C68.7447 30.086 69.3753 29.8147 69.8887 29.272C70.4167 28.7293 70.6807 27.9887 70.6807 27.05ZM82.7523 33.364C81.5496 33.364 80.4643 33.1073 79.4963 32.594C78.543 32.0807 77.7876 31.3473 77.2303 30.394C76.6876 29.4407 76.4163 28.326 76.4163 27.05C76.4163 25.7887 76.695 24.6813 77.2523 23.728C77.8096 22.76 78.5723 22.0193 79.5403 21.506C80.5083 20.9927 81.5936 20.736 82.7963 20.736C83.999 20.736 85.0843 20.9927 86.0523 21.506C87.0203 22.0193 87.783 22.76 88.3403 23.728C88.8976 24.6813 89.1763 25.7887 89.1763 27.05C89.1763 28.3113 88.8903 29.426 88.3183 30.394C87.761 31.3473 86.991 32.0807 86.0083 32.594C85.0403 33.1073 83.955 33.364 82.7523 33.364ZM82.7523 30.108C83.471 30.108 84.0796 29.844 84.5783 29.316C85.0916 28.788 85.3483 28.0327 85.3483 27.05C85.3483 26.0673 85.099 25.312 84.6003 24.784C84.1163 24.256 83.515 23.992 82.7963 23.992C82.063 23.992 81.4543 24.256 80.9703 24.784C80.4863 25.2973 80.2443 26.0527 80.2443 27.05C80.2443 28.0327 80.479 28.788 80.9483 29.316C81.4323 29.844 82.0336 30.108 82.7523 30.108Z" fill="black"/>
</svg>
